<svg width="24" height="24" viewBox="0 0 24 24" fill="none" xmlns="http://www.w3.org/2000/svg">
<path fill-rule="evenodd" clip-rule="evenodd" d="M5.29279 11.707C5.10532 11.5195 5 11.2652 5 11C5 10.7349 5.10532 10.4806 5.29279 10.293L11.2928 4.29303C11.4803 4.10556 11.7346 4.00024 11.9998 4.00024C12.265 4.00024 12.5193 4.10556 12.7068 4.29303L18.7068 10.293C18.8889 10.4816 18.9897 10.7342 18.9875 10.9964C18.9852 11.2586 18.88 11.5094 18.6946 11.6948C18.5092 11.8803 18.2584 11.9854 17.9962 11.9877C17.734 11.99 17.4814 11.8892 17.2928 11.707L12.9998 7.41403V19C12.9998 19.2652 12.8944 19.5196 12.7069 19.7071C12.5194 19.8947 12.265 20 11.9998 20C11.7346 20 11.4802 19.8947 11.2927 19.7071C11.1051 19.5196 10.9998 19.2652 10.9998 19V7.41403L6.70679 11.707C6.51926 11.8945 6.26495 11.9998 5.99979 11.9998C5.73462 11.9998 5.48031 11.8945 5.29279 11.707Z" fill="#3C4959"/>
</svg>
