<svg width="24" height="24" viewBox="0 0 24 24" fill="none" xmlns="http://www.w3.org/2000/svg">
<g clip-path="url(#clip0_4528_1968)">
<path d="M11.9998 4C10.4085 4 8.88236 4.63214 7.75715 5.75736C6.63193 6.88258 5.99979 8.4087 5.99979 10V13.586L5.29279 14.293C5.15298 14.4329 5.05777 14.611 5.0192 14.805C4.98064 14.9989 5.00044 15.2 5.07611 15.3827C5.15178 15.5654 5.27992 15.7215 5.44433 15.8314C5.60874 15.9413 5.80204 16 5.99979 16H17.9998C18.1975 16 18.3908 15.9413 18.5552 15.8314C18.7197 15.7215 18.8478 15.5654 18.9235 15.3827C18.9991 15.2 19.0189 14.9989 18.9804 14.805C18.9418 14.611 18.8466 14.4329 18.7068 14.293L17.9998 13.586V10C17.9998 8.4087 17.3676 6.88258 16.2424 5.75736C15.1172 4.63214 13.5911 4 11.9998 4ZM11.9998 20C11.2041 20 10.4411 19.6839 9.87847 19.1213C9.31586 18.5587 8.99979 17.7956 8.99979 17H14.9998C14.9998 17.7956 14.6837 18.5587 14.1211 19.1213C13.5585 19.6839 12.7954 20 11.9998 20Z" fill="#333333"/>
<g clip-path="url(#clip1_4528_1968)">
<rect x="13" width="10" height="10" rx="5" fill="#F76659"/>
<path d="M18.8835 2.18182V8H17.8295V3.20739H17.7955L16.4347 4.0767V3.1108L17.8807 2.18182H18.8835Z" fill="#FFEFEB"/>
</g>
<rect x="12" y="-1" width="12" height="12" rx="6" stroke="white" stroke-width="2"/>
</g>
<defs>
<clipPath id="clip0_4528_1968">
<rect width="24" height="24" fill="white"/>
</clipPath>
<clipPath id="clip1_4528_1968">
<rect x="13" width="10" height="10" rx="5" fill="white"/>
</clipPath>
</defs>
</svg>
